<svg xmlns="http://www.w3.org/2000/svg" width="1200" height="360" viewBox="0 0 1200 360" role="img" aria-labelledby="title"><title id="title">Arman — curiosity into code</title><defs><linearGradient id="bg" x2="1" y2="1"><stop stop-color="#101b2c"/><stop offset="1" stop-color="#080d16"/></linearGradient><pattern id="grid" width="32" height="32" patternUnits="userSpaceOnUse"><path d="M32 0H0V32" fill="none" stroke="#b0c6da" stroke-opacity=".045"/></pattern></defs><rect width="1200" height="360" rx="22" fill="url(#bg)"/><rect width="1200" height="360" rx="22" fill="url(#grid)"/><path d="M64 66h38" stroke="#72e5c0" stroke-width="3"/><text x="116" y="72" fill="#72e5c0" font-family="monospace" font-size="13" letter-spacing="3">CURIOSITY INTO CODE</text><text x="60" y="165" fill="#edf3fa" font-family="Arial, sans-serif" font-size="76" font-weight="700" letter-spacing="-3">Arman.</text><text x="65" y="215" fill="#a8b6c9" font-family="Arial, sans-serif" font-size="22">Exploring how machines learn.</text><text x="65" y="292" fill="#72e5c0" font-family="monospace" font-size="14">MACHINE LEARNING / DEEP LEARNING</text><path d="M785 96L915 65" stroke="#a7a0ff" stroke-opacity=".3" stroke-width="1.5"/><path d="M785 96L915 180" stroke="#a7a0ff" stroke-opacity=".3" stroke-width="1.5"/><path d="M785 96L915 295" stroke="#a7a0ff" stroke-opacity=".3" stroke-width="1.5"/><path d="M785 180L915 65" stroke="#a7a0ff" stroke-opacity=".3" stroke-width="1.5"/><path d="M785 180L915 180" stroke="#a7a0ff" stroke-opacity=".3" stroke-width="1.5"/><path d="M785 180L915 295" stroke="#a7a0ff" stroke-opacity=".3" stroke-width="1.5"/><path d="M785 264L915 65" stroke="#a7a0ff" stroke-opacity=".3" stroke-width="1.5"/><path d="M785 264L915 180" stroke="#a7a0ff" stroke-opacity=".3" stroke-width="1.5"/><path d="M785 264L915 295" stroke="#a7a0ff" stroke-opacity=".3" stroke-width="1.5"/><path d="M915 65L1055 118" stroke="#a7a0ff" stroke-opacity=".3" stroke-width="1.5"/><path d="M915 65L1055 242" stroke="#a7a0ff" stroke-opacity=".3" stroke-width="1.5"/><path d="M915 180L1055 118" stroke="#a7a0ff" stroke-opacity=".3" stroke-width="1.5"/><path d="M915 180L1055 242" stroke="#a7a0ff" stroke-opacity=".3" stroke-width="1.5"/><path d="M915 295L1055 118" stroke="#a7a0ff" stroke-opacity=".3" stroke-width="1.5"/><path d="M915 295L1055 242" stroke="#a7a0ff" stroke-opacity=".3" stroke-width="1.5"/><path d="M1055 118L1135 180" stroke="#a7a0ff" stroke-opacity=".3" stroke-width="1.5"/><path d="M1055 242L1135 180" stroke="#a7a0ff" stroke-opacity=".3" stroke-width="1.5"/><circle cx="785" cy="96" r="10" fill="#101b2c" stroke="#72e5c0" stroke-width="2"/><circle cx="785" cy="180" r="10" fill="#101b2c" stroke="#72e5c0" stroke-width="2"/><circle cx="785" cy="264" r="10" fill="#101b2c" stroke="#72e5c0" stroke-width="2"/><circle cx="915" cy="65" r="10" fill="#101b2c" stroke="#b7afff" stroke-width="2"/><circle cx="915" cy="180" r="10" fill="#101b2c" stroke="#b7afff" stroke-width="2"/><circle cx="915" cy="295" r="10" fill="#101b2c" stroke="#b7afff" stroke-width="2"/><circle cx="1055" cy="118" r="10" fill="#101b2c" stroke="#b7afff" stroke-width="2"/><circle cx="1055" cy="242" r="10" fill="#101b2c" stroke="#b7afff" stroke-width="2"/><circle cx="1135" cy="180" r="10" fill="#101b2c" stroke="#72e5c0" stroke-width="2"/></svg>